HIERARCHY
ROOT root
{
	OFFSET 0.000000 0.000000 0.000000
	CHANNELS 6 Xposition Yposition Zposition Zrotation Yrotation Xrotation
	JOINT lhip
	{
		OFFSET 0.058581 -0.082280 -0.017664
		CHANNELS 3 Zrotation Yrotation Xrotation
		JOINT lknee
		{
			OFFSET 0.043451 -0.386469 0.008037
			CHANNELS 3 Zrotation Yrotation Xrotation
			JOINT lankle
			{
				OFFSET -0.014790 -0.426874 -0.037428
				CHANNELS 3 Zrotation Yrotation Xrotation
				JOINT ltoe
				{
					OFFSET 0.041054 -0.060286 0.122042
					CHANNELS 3 Zrotation Yrotation Xrotation
					End Site
					{
						OFFSET 0.000000 0.000000 0.000000
					}
				}
			}
		}
	}
	JOINT rhip
	{
		OFFSET -0.060310 -0.090513 -0.013543
		CHANNELS 3 Zrotation Yrotation Xrotation
		JOINT rknee
		{
			OFFSET -0.043257 -0.383688 -0.004843
			CHANNELS 3 Zrotation Yrotation Xrotation
			JOINT rankle
			{
				OFFSET 0.019056 -0.420046 -0.034562
				CHANNELS 3 Zrotation Yrotation Xrotation
				JOINT rtoe
				{
					OFFSET -0.034840 -0.062106 0.130323
					CHANNELS 3 Zrotation Yrotation Xrotation
					End Site
					{
						OFFSET 0.000000 0.000000 0.000000
					}
				}
			}
		}
	}
	JOINT lowerback
	{
		OFFSET 0.004439 0.124404 -0.038385
		CHANNELS 3 Zrotation Yrotation Xrotation
		JOINT upperback
		{
			OFFSET 0.004488 0.137956 0.026820
			CHANNELS 3 Zrotation Yrotation Xrotation
			JOINT chest
			{
				OFFSET -0.002265 0.056032 0.002855
				CHANNELS 3 Zrotation Yrotation Xrotation
				JOINT lowerneck
				{
					OFFSET -0.013390 0.211636 -0.033468
					CHANNELS 3 Zrotation Yrotation Xrotation
					JOINT upperneck
					{
						OFFSET 0.010113 0.088937 0.050410
						CHANNELS 3 Zrotation Yrotation Xrotation
						End Site
						{
							OFFSET 0.000000 0.000000 0.000000
						}
					}
				}
				JOINT lclavicle
				{
					OFFSET 0.071702 0.114000 -0.018898
					CHANNELS 3 Zrotation Yrotation Xrotation
					JOINT lshoulder
					{
						OFFSET 0.122921 0.045205 -0.019046
						CHANNELS 3 Zrotation Yrotation Xrotation
						JOINT lelbow
						{
							OFFSET 0.255332 -0.015649 -0.022946
							CHANNELS 3 Zrotation Yrotation Xrotation
							JOINT lwrist
							{
								OFFSET 0.265709 0.012698 -0.007375
								CHANNELS 3 Zrotation Yrotation Xrotation
								End Site
								{
									OFFSET 0.000000 0.000000 0.000000
								}
							}
						}
					}
				}
				JOINT rclavicle
				{
					OFFSET -0.082954 0.112472 -0.023707
					CHANNELS 3 Zrotation Yrotation Xrotation
					JOINT rshoulder
					{
						OFFSET -0.113228 0.046853 -0.008472
						CHANNELS 3 Zrotation Yrotation Xrotation
						JOINT relbow
						{
							OFFSET -0.260127 -0.014369 -0.031269
							CHANNELS 3 Zrotation Yrotation Xrotation
							JOINT rwrist
							{
								OFFSET -0.269108 0.006794 -0.006027
								CHANNELS 3 Zrotation Yrotation Xrotation
								End Site
								{
									OFFSET 0.000000 0.000000 0.000000
								}
							}
						}
					}
				}
			}
		}
	}
}
MOTION
Frames: 10
Frame Time: 0.033333
-0.072686 0.220873 0.957368 96.154334 -0.774781 79.487319 5.308665 1.815247 -14.622834 -10.967722 -5.640610 40.944231 -5.773838 8.076518 -18.265260 0.000000 -0.000000 0.000000 -4.336316 -1.313031 -12.857040 2.540189 -1.431266 41.057746 3.730870 -10.011805 -18.617997 0.000000 -0.000000 0.000000 3.773482 2.638762 35.643221 3.123230 -8.578722 36.192736 5.638713 1.804623 -12.471520 -4.902828 -6.869977 5.135859 13.885826 -2.519434 -33.728421 -7.451110 -50.005304 -0.605463 1.547055 -8.120147 -0.256145 14.921853 -54.842497 -10.741765 -7.999798 -7.855683 10.636843 4.532702 51.768223 2.710093 1.114641 9.660113 -7.279491 -2.427356 59.930830 4.869859 14.599303 5.492441 1.460897 
-0.070047 0.224263 0.957848 95.948227 -1.161686 79.393288 4.861773 2.090667 -14.062549 -11.134037 -5.480364 40.625665 -5.384742 7.939848 -18.484371 0.000000 -0.000000 0.000000 -4.887950 -1.160120 -12.500185 2.523208 -1.127863 40.905670 3.670768 -10.213437 -18.773077 0.000000 -0.000000 0.000000 4.273030 2.315503 33.452399 3.859756 -8.414262 35.701251 5.631468 2.075697 -11.824673 -4.879787 -7.073335 5.621336 13.103246 -2.988101 -33.614619 -7.070161 -47.737171 -0.552706 1.883146 -6.873567 -0.448384 16.647104 -56.909396 -11.829328 -6.761670 -8.689233 11.754703 5.435715 50.505390 3.413466 1.108526 9.709107 -7.287477 -3.813479 60.458242 3.279733 12.551116 6.110349 2.469094 
-0.066875 0.227805 0.958834 95.800866 -1.587800 79.063470 4.265131 2.096573 -13.172955 -11.199510 -5.364071 40.187764 -5.166228 8.113423 -18.609882 0.000000 -0.000000 0.000000 -5.549792 -1.213279 -11.778285 2.542676 -0.728257 40.591834 3.819790 -10.418716 -18.777544 0.000000 -0.000000 0.000000 4.639327 2.156320 31.667727 4.664611 -8.349879 34.597430 5.833727 2.242230 -11.099643 -4.825914 -7.592874 5.882075 12.056317 -3.342512 -32.897020 -6.483234 -45.061795 -0.502055 2.096711 -5.368229 -0.766315 19.862814 -59.239495 -13.922871 -5.204474 -9.547071 12.796397 5.883775 48.943431 3.364812 1.695303 9.805273 -7.062183 -5.731545 61.365221 1.074202 11.088520 6.931885 3.098838 
-0.062497 0.231494 0.960288 95.791485 -1.798996 78.470416 3.648383 2.167672 -11.878298 -11.101402 -5.791529 39.724615 -4.991093 8.429339 -18.830455 0.000000 -0.000000 0.000000 -6.064489 -1.440769 -10.492764 2.419714 -0.574160 39.997945 4.043493 -10.125278 -18.856654 0.000000 -0.000000 0.000000 5.151588 1.812464 30.252205 5.374057 -8.289291 32.850163 6.029636 2.445694 -10.384027 -5.081560 -8.261373 6.990121 11.145119 -3.641858 -32.444527 -6.305897 -42.368941 -0.107294 2.529108 -3.610091 -1.069505 24.851932 -61.732527 -18.099499 -3.707056 -9.874952 12.751695 6.646737 47.219478 3.614856 1.905737 9.504508 -7.067833 -7.390496 62.625325 -0.986148 9.179705 7.531339 3.411786 
-0.057357 0.234672 0.961059 95.555982 -1.897286 78.060352 3.350852 2.042841 -10.824441 -11.024847 -5.750584 39.436108 -4.774389 8.822580 -19.183617 0.000000 -0.000000 0.000000 -6.364451 -1.370955 -9.473752 2.481338 -0.348243 39.565105 4.044276 -10.241680 -19.024311 0.000000 -0.000000 0.000000 5.261633 1.689598 28.079887 6.145980 -8.144258 31.379439 6.216346 2.646872 -9.491172 -5.339696 -8.824189 8.421998 10.180001 -4.167135 -31.736945 -5.664676 -39.406113 0.312710 2.815478 -1.831167 -1.560660 32.136903 -63.735875 -25.032215 -1.989918 -10.704665 12.469400 6.971773 45.273084 3.820456 2.159842 9.127710 -7.177138 -10.615865 63.868181 -4.608320 7.897485 8.104877 3.002566 
-0.051152 0.237452 0.961838 95.319030 -1.908510 77.407351 3.087166 2.224858 -9.459577 -10.882304 -6.107257 39.239807 -4.650751 9.090037 -19.634450 0.000000 -0.000000 0.000000 -6.504358 -1.507714 -8.152139 2.486858 0.077451 39.195606 3.944614 -10.184824 -19.345955 0.000000 -0.000000 0.000000 5.157534 1.577237 25.866920 6.732774 -8.076897 30.144767 6.334650 2.829247 -8.559574 -5.705452 -9.199461 9.876485 9.352099 -4.752723 -30.668361 -4.818988 -36.363432 0.452837 3.224218 -0.152300 -2.758450 41.318051 -65.107560 -33.996860 -0.875430 -11.574575 11.607008 7.127011 43.172288 3.837310 2.724404 8.788665 -7.736235 -16.196423 64.793317 -10.289878 6.635740 8.528338 3.560933 
-0.044359 0.239323 0.961938 94.933175 -1.873189 76.674254 2.978010 2.395227 -8.015600 -10.800739 -6.443737 39.216770 -4.407389 9.560332 -20.171918 0.000000 -0.000000 0.000000 -6.432404 -1.446766 -6.805956 2.379238 0.458436 39.047396 3.862608 -10.505094 -19.873907 0.000000 -0.000000 0.000000 4.892672 1.684596 23.663431 7.171031 -7.738175 28.647160 6.249180 3.010447 -7.367717 -5.894213 -9.477608 11.573539 8.754864 -5.388163 -29.546597 -3.421065 -33.697762 0.256217 3.597975 1.032264 -3.992366 50.974755 -65.077547 -42.975341 1.890177 -12.097684 11.200467 6.825635 40.841179 3.188636 3.527076 7.869152 -8.382006 -22.848231 65.422896 -16.766639 5.340548 9.274774 3.463308 
-0.036561 0.240918 0.961590 94.779534 -1.671614 75.995174 2.966617 2.288780 -6.648819 -10.651903 -6.847554 39.289735 -4.263222 10.032898 -20.917975 0.000000 -0.000000 0.000000 -6.263856 -1.571270 -5.417059 2.276415 0.706372 38.860818 3.777752 -10.558894 -20.397498 0.000000 -0.000000 0.000000 4.347529 1.743351 21.318652 7.562462 -7.712454 27.146497 6.391089 3.157151 -6.152394 -6.442862 -9.655475 13.346021 8.216084 -6.056406 -28.140872 -2.618454 -31.055504 -0.007368 4.135896 1.982233 -5.981599 60.866763 -63.952852 -52.776999 2.150839 -12.263229 10.488748 6.822579 38.576817 3.089513 3.642347 6.838213 -9.432801 -31.391877 65.575684 -25.021427 5.115196 9.033978 3.378433 
-0.028101 0.241703 0.960911 94.636846 -1.467149 75.308781 3.035140 2.214411 -5.216310 -10.489820 -7.221057 39.323649 -4.196276 10.353374 -21.725159 0.000000 -0.000000 0.000000 -6.133751 -1.760282 -3.965916 2.240374 0.864594 38.656441 3.834806 -10.435127 -20.978578 0.000000 -0.000000 0.000000 3.878516 1.922141 18.988568 7.644921 -7.622656 25.609010 6.188926 3.073681 -5.199747 -6.791100 -9.773789 15.588510 7.813629 -6.816466 -26.549350 -1.952872 -28.988979 -0.147084 4.939266 2.403631 -8.108259 68.748706 -61.717639 -61.216594 2.908411 -12.423728 10.058833 6.607695 36.362030 2.611821 4.042223 5.644749 -10.527246 -39.321164 64.572426 -33.167672 4.604028 9.199460 2.923473 
-0.018955 0.241721 0.960483 94.473367 -1.275020 74.584313 3.220673 2.128231 -3.569409 -10.257269 -7.431890 38.998956 -4.117506 10.558709 -22.275552 0.000000 -0.000000 0.000000 -5.943992 -2.065633 -2.275735 2.186602 1.224154 38.145520 3.770882 -10.395950 -21.422900 0.000000 -0.000000 0.000000 3.192837 2.117165 16.205566 7.522204 -7.660078 24.771244 5.786327 2.934426 -4.115536 -7.001743 -9.551571 17.672331 7.454798 -7.639393 -24.829466 -0.904095 -27.043986 -0.492085 5.216855 2.144231 -10.825295 74.832575 -58.970490 -67.251206 3.248426 -12.295731 8.465102 6.076172 33.936032 2.289815 4.529083 5.195791 -12.263205 -46.577464 62.187997 -39.915825 3.013911 9.396426 3.833144 
